<svg fill="none" height="360" viewBox="0 0 360 360" width="360" xmlns="http://www.w3.org/2000/svg"><path d="m98.484 164.971c1.2179-3.031 4.156-5.017 7.423-5.017h63.106c2.807 0 4.884 2.611 4.253 5.346-.77 3.337 2.426 6.22 5.666 5.112l29.309-10.027c.834-.285 1.709-.431 2.59-.431h91.43c6.891 0 10.558 8.131 5.996 13.296l-44.112 49.945c-2.658 3.009-2.673 7.523-.036 10.55l68.344 78.454c4.51 5.177.833 13.255-6.032 13.255h-118.843c-.716 0-1.428-.096-2.117-.285l-74.07-20.324c-3.925-1.077-8.033.965-9.545 4.744l-4.334 10.836c-1.215 3.037-4.157 5.029-7.428 5.029h-64.2478c-5.6651 0-9.5354-5.726-7.4232-10.983z" fill="#404040"/><ellipse cx="184" cy="234.954" fill="#bea47c" rx="64" ry="30"/><ellipse cx="2" cy="1.5" fill="#82540e" rx="2" ry="1.5" transform="matrix(1 0 0 -1 183 235.954)"/><g stroke="#82540e"><path d="m185 234.454c-2-45-4.8-138.7999 0-153.9999s24.667-26 34-29.5" stroke-width="4"/><path d="m184.5 233.954c0-12.667 0-38.4 0-40 0-2 5.5-17.5 20.5-20 12-2 32.667-8.833 41.5-12" stroke-width="3"/><path d="m184.5 233.954c-.833-32-2.6-97.3-3-102.5-.5-6.5-2-16.5-22.5-21.5s-34.5 0-49.5 0c-12 0-26-6.667-31.5-9.9999" stroke-width="3"/><path d="m189 71.9541c.4-7.6-12.833-21.5-19.5-27.5" stroke-width="3"/><path d="m95.5 107.454c-12.4 1.2-27.1667 8.833-33 12.5" stroke-width="2"/></g><ellipse cx="157.999" cy="44.4542" fill="#62cc6a" rx="17" ry="20.5" transform="matrix(.83820638 .54535315 -.54535315 .83820638 49.806468 -78.972847)"/><ellipse cx="219.255" cy="49.3445" fill="#54af5b" rx="17.5" ry="10" transform="matrix(.99668589 .08134638 -.08134638 .99668589 4.740631 -17.672068)"/><ellipse cx="72.2069" cy="85.4434" fill="#62cc6a" rx="17" ry="20.5" transform="matrix(.99817516 -.06038497 .06038497 .99817516 -5.027731 4.516132)"/><ellipse cx="55.5003" cy="123.954" fill="#54af5b" rx="17.5" ry="10" transform="matrix(.68389033 -.72958483 .72958483 .68389033 -72.890776 79.675235)"/><ellipse cx="257.325" cy="158.078" fill="#62cc6a" rx="17" ry="20.5" transform="matrix(.51444103 -.85752576 .85752576 .51444103 -10.609495 297.419007)"/></svg>