<svg fill="none" height="48" viewBox="0 0 48 48" width="48" xmlns="http://www.w3.org/2000/svg"><path d="m13.1311 21.9961c.1624-.4041.5542-.669.9897-.669h8.4142c.3742 0 .6512.3482.567.7129-.1026.4448.3235.8292.7555.6815l3.9078-1.3369c.1112-.038.2278-.0575.3453-.0575h12.1907c.9188 0 1.4077 1.0842.7995 1.7728l-5.8816 6.6593c-.3544.4013-.3564 1.0031-.0048 1.4068l9.1126 10.4605c.6012.6902.111 1.7673-.8043 1.7673h-15.8458c-.0954 0-.1903-.0128-.2823-.038l-9.8759-2.7099c-.5234-.1436-1.0711.1286-1.2727.6325l-.5779 1.4449c-.162.405-.5542.6705-.9904.6705h-8.56634c-.75534 0-1.27138-.7635-.98976-1.4643z" fill="#404040"/><ellipse cx="24.5333" cy="31.3271" fill="#bea47c" rx="8.53333" ry="4"/><ellipse cx=".266667" cy=".2" fill="#82540e" rx=".266667" ry=".2" transform="matrix(1 0 0 -1 24.4004 31.4604)"/><g stroke="#82540e"><path d="m24.6669 31.2601c-.2667-6-.64-18.5066 0-20.5333.64-2.02668 3.2888-3.46668 4.5333-3.93334" stroke-width=".533333"/><path d="m24.5996 31.1938c0-1.6889 0-5.12 0-5.3334 0-.2666.7333-2.3333 2.7333-2.6666 1.6-.2667 4.3556-1.1778 5.5334-1.6" stroke-width=".4"/><path d="m24.6004 31.1938c-.1111-4.2667-.3467-12.9733-.4-13.6667-.0667-.8666-.2667-2.2-3-2.8666-2.7333-.6667-4.6 0-6.6 0-1.6 0-3.4667-.8889-4.2-1.3334" stroke-width=".4"/><path d="m25.1996 9.59391c.0533-1.01333-1.7111-2.86666-2.6-3.66666" stroke-width=".4"/><path d="m12.733 14.3271c-1.6533.16-3.62221 1.1778-4.39999 1.6667" stroke-width=".266667"/></g><ellipse cx="21.0665" cy="5.92713" fill="#62cc6a" rx="2.26667" ry="2.73333" transform="matrix(.83820638 .54535315 -.54535315 .83820638 6.640804 -10.52971)"/><ellipse cx="29.2337" cy="6.57927" fill="#54af5b" rx="2.33333" ry="1.33333" transform="matrix(.99668589 .08134638 -.08134638 .99668589 .632083 -2.356251)"/><ellipse cx="9.62778" cy="11.3923" fill="#62cc6a" rx="2.26667" ry="2.73333" transform="matrix(.99817516 -.06038497 .06038497 .99817516 -.670355 .602162)"/><ellipse cx="7.39958" cy="16.5274" fill="#54af5b" rx="2.33333" ry="1.33333" transform="matrix(.68389033 -.72958483 .72958483 .68389033 -9.719061 10.623092)"/><ellipse cx="34.3098" cy="21.0772" fill="#62cc6a" rx="2.26667" ry="2.73333" transform="matrix(.51444103 -.85752576 .85752576 .51444103 -1.414811 39.655761)"/></svg>